<svg width="16" height="17" viewBox="0 0 16 17" fill="none" xmlns="http://www.w3.org/2000/svg">
<path d="M8 6.5C6.916 6.5 6 7.416 6 8.5C6 9.584 6.916 10.5 8 10.5C9.084 10.5 10 9.584 10 8.5C10 7.416 9.084 6.5 8 6.5Z" fill="#6A6C6B"/>
<path d="M13.3333 3.83325H11.6093L9.80467 2.02859C9.67967 1.90355 9.51013 1.83329 9.33334 1.83325H6.66667C6.48987 1.83329 6.32033 1.90355 6.19534 2.02859L4.39067 3.83325H2.66667C1.93134 3.83325 1.33334 4.43125 1.33334 5.16659V12.4999C1.33334 13.2353 1.93134 13.8333 2.66667 13.8333H13.3333C14.0687 13.8333 14.6667 13.2353 14.6667 12.4999V5.16659C14.6667 4.43125 14.0687 3.83325 13.3333 3.83325ZM8 11.8333C6.19334 11.8333 4.66667 10.3066 4.66667 8.49992C4.66667 6.69325 6.19334 5.16659 8 5.16659C9.80667 5.16659 11.3333 6.69325 11.3333 8.49992C11.3333 10.3066 9.80667 11.8333 8 11.8333Z" fill="inherit"/>
</svg>
